<mxfile host="app.diagrams.net" modified="2022-10-02T12:08:27.689Z" agent="5.0 (Macintosh; Intel Mac OS X 10_15_7) AppleWebKit/537.36 (KHTML, like Gecko) Chrome/105.0.0.0 Safari/537.36" etag="Zk_zpa_rXQ0KmzoN6Yrk" version="20.4.0" type="github">
  <diagram id="ILyPGLwqwwxRPI_2Q06Y" name="第 1 页">
    <mxGraphModel dx="1426" dy="794" grid="1" gridSize="10" guides="1" tooltips="1" connect="1" arrows="1" fold="1" page="1" pageScale="1" pageWidth="583" pageHeight="827" math="0" shadow="0">
      <root>
        <mxCell id="0" />
        <mxCell id="1" parent="0" />
        <mxCell id="0iTJBzLjwEh6FHrzZWZ4-3" style="edgeStyle=orthogonalEdgeStyle;rounded=0;orthogonalLoop=1;jettySize=auto;html=1;" edge="1" parent="1" source="0iTJBzLjwEh6FHrzZWZ4-1" target="0iTJBzLjwEh6FHrzZWZ4-2">
          <mxGeometry relative="1" as="geometry" />
        </mxCell>
        <mxCell id="0iTJBzLjwEh6FHrzZWZ4-1" value="Vue3 diff算法" style="rounded=1;whiteSpace=wrap;html=1;" vertex="1" parent="1">
          <mxGeometry x="200" y="20" width="120" height="60" as="geometry" />
        </mxCell>
        <mxCell id="0iTJBzLjwEh6FHrzZWZ4-2" value="优化模式下进行diff&lt;br&gt;(patchBlockChildren)" style="rounded=1;whiteSpace=wrap;html=1;" vertex="1" parent="1">
          <mxGeometry x="50" y="150" width="120" height="60" as="geometry" />
        </mxCell>
      </root>
    </mxGraphModel>
  </diagram>
</mxfile>
